<?xml version="1.0" encoding="utf-8"?>
<!-- Generator: Adobe Illustrator 27.4.1, SVG Export Plug-In . SVG Version: 6.00 Build 0)  -->
<svg version="1.1" id="Layer_1" xmlns="http://www.w3.org/2000/svg" xmlns:xlink="http://www.w3.org/1999/xlink" x="0px" y="0px"
	 viewBox="0 0 5000 5000" style="enable-background:new 0 0 5000 5000;" xml:space="preserve">
<g>
	<path d="M2815.7,4021c43.8,30.2,88.8,59.1,135,86.5c14.5,8.6,11.1,33-5,36.3c-160.4,33.4-325.6,50.3-493.9,50.3
		c-274.2,0-540.2-44.8-790.5-133.1c-241.8-85.3-459-207.5-645.6-363.1c-186.6-155.6-333.1-336.8-435.3-538.6
		c-105.8-208.8-159.5-430.6-159.5-659.4s53.7-450.6,159.5-659.4c102.3-201.7,248.7-382.9,435.3-538.6
		c186.6-155.6,403.8-277.8,645.6-363.1c250.3-88.3,516.2-133.1,790.5-133.1c169.5,0,335.9,17.1,497.3,51c16.2,3.4,19.5,27.7,5,36.4
		c-108.1,64-210,135.9-305.1,215.1c-216.9,180.9-387.1,391.5-506.1,626.1c-123.2,243-185.7,501-185.7,766.9s62.4,523.9,185.7,766.9
		c118.9,234.6,289.2,445.3,506.1,626.2C2702.4,3939,2758,3981.2,2815.7,4021z"/>
	<path d="M4579.2,2500c0,228.8-53.7,450.6-159.5,659.4c-102.3,201.7-248.7,382.9-435.3,538.6c-74.7,62.3-154.3,119.3-238.5,170.6
		c-74.5,45.5-152.6,86.6-234,123.2c-20.3,9.1-42.9,9.1-63.2,0c-172-77.6-329.3-175.6-469.3-292.4
		c-186.6-155.6-333.1-336.8-435.3-538.6c-105.8-208.8-159.5-430.6-159.5-659.4c0-228.8,53.7-450.6,159.5-659.4
		c102.3-201.7,248.7-382.9,435.3-538.5c74.7-62.3,154.3-119.3,238.5-170.6c74.5-45.5,152.6-86.6,234-123.2c20.3-9.1,42.9-9.1,63.2,0
		c172,77.6,329.3,175.6,469.3,292.4c186.6,155.6,333.1,336.8,435.3,538.6C4525.5,2049.4,4579.2,2271.2,4579.2,2500z"/>
</g>
</svg>
